<svg width="89" height="50" viewBox="0 0 89 50" fill="none" xmlns="http://www.w3.org/2000/svg">
<path d="M9.04 40C8.66667 40 8.36 39.88 8.12 39.64C7.88 39.4 7.76 39.12 7.76 38.8V14.72L8.2 15.12L2.88 18.68C2.66667 18.84 2.44 18.92 2.2 18.92C1.88 18.92 1.58667 18.7867 1.32 18.52C1.08 18.2533 0.96 17.96 0.96 17.64C0.96 17.2133 1.17333 16.88 1.6 16.64L8.28 12.2C8.44 12.0933 8.6 12.0267 8.76 12C8.94667 11.9733 9.10667 11.9733 9.24 12C9.58667 12.0267 9.85333 12.16 10.04 12.4C10.2267 12.6133 10.32 12.88 10.32 13.2V38.8C10.32 39.12 10.2 39.4 9.96 39.64C9.72 39.88 9.41333 40 9.04 40ZM18.3647 35.88C18.498 35.88 18.6314 35.9067 18.7647 35.96C18.9247 36.0133 19.1114 36.1333 19.3247 36.32C19.8847 36.9067 20.5514 37.36 21.3247 37.68C22.098 37.9733 22.978 38.12 23.9647 38.12C25.2714 38.12 26.458 37.8267 27.5247 37.24C28.618 36.6533 29.4847 35.84 30.1247 34.8C30.7647 33.7333 31.0847 32.52 31.0847 31.16C31.0847 29.6133 30.738 28.3733 30.0447 27.44C29.378 26.48 28.5114 25.7733 27.4447 25.32C26.4047 24.84 25.338 24.6 24.2447 24.6C23.9514 24.6 23.658 24.6267 23.3647 24.68C23.098 24.7067 22.8447 24.7467 22.6047 24.8C22.3647 24.8533 22.178 24.88 22.0447 24.88C21.698 24.88 21.4314 24.7733 21.2447 24.56C21.058 24.32 20.9647 24.0267 20.9647 23.68C20.9647 23.4933 21.0047 23.3333 21.0847 23.2C21.1647 23.04 21.2714 22.8667 21.4047 22.68L29.5247 13.84L30.0047 14.48H17.8847C17.5647 14.48 17.2847 14.3733 17.0447 14.16C16.8314 13.92 16.7247 13.64 16.7247 13.32C16.7247 13 16.8314 12.7333 17.0447 12.52C17.2847 12.3067 17.5647 12.2 17.8847 12.2H31.3247C31.778 12.2 32.098 12.3467 32.2847 12.64C32.4714 12.9067 32.5647 13.1733 32.5647 13.44C32.5647 13.6 32.5247 13.76 32.4447 13.92C32.3647 14.0533 32.258 14.2 32.1247 14.36L24.0047 23.2L23.1247 22.68C23.2047 22.6 23.4714 22.52 23.9247 22.44C24.4047 22.3333 24.778 22.28 25.0447 22.28C26.5114 22.28 27.8847 22.6267 29.1647 23.32C30.4714 24.0133 31.5247 25.0133 32.3247 26.32C33.1514 27.6 33.5647 29.1867 33.5647 31.08C33.5647 32.9467 33.1247 34.5867 32.2447 36C31.3647 37.3867 30.178 38.4667 28.6847 39.24C27.1914 40.0133 25.538 40.4 23.7247 40.4C22.6314 40.4 21.5514 40.2133 20.4847 39.84C19.418 39.4667 18.4847 38.9067 17.6847 38.16C17.498 38 17.3647 37.84 17.2847 37.68C17.2047 37.52 17.1647 37.36 17.1647 37.2C17.1647 36.88 17.2714 36.5867 17.4847 36.32C17.7247 36.0267 18.018 35.88 18.3647 35.88Z" fill="#DBA11C"/>
<path d="M39.551 27C39.375 27 39.221 26.9487 39.089 26.846C38.957 26.736 38.891 26.6003 38.891 26.439V19.861C38.891 19.6997 38.946 19.5677 39.056 19.465C39.166 19.355 39.298 19.3 39.452 19.3H42.554C42.95 19.3 43.313 19.399 43.643 19.597C43.973 19.7877 44.237 20.0553 44.435 20.4C44.6403 20.7373 44.743 21.126 44.743 21.566C44.743 21.8593 44.6843 22.1417 44.567 22.413C44.4497 22.677 44.292 22.9117 44.094 23.117C43.896 23.3223 43.6723 23.4763 43.423 23.579L43.302 23.37C43.5293 23.4507 43.7273 23.568 43.896 23.722C44.0647 23.8687 44.1967 24.0447 44.292 24.25C44.3947 24.448 44.4497 24.6753 44.457 24.932C44.479 25.1593 44.4973 25.35 44.512 25.504C44.534 25.6507 44.5633 25.7717 44.6 25.867C44.6367 25.9623 44.7027 26.0357 44.798 26.087C44.93 26.1603 45.0107 26.2703 45.04 26.417C45.0767 26.5637 45.0473 26.6957 44.952 26.813C44.886 26.901 44.8017 26.9597 44.699 26.989C44.6037 27.011 44.5047 27.0147 44.402 27C44.2993 26.978 44.2113 26.9487 44.138 26.912C44.0207 26.8387 43.8997 26.736 43.775 26.604C43.6577 26.4647 43.5623 26.274 43.489 26.032C43.4157 25.79 43.379 25.471 43.379 25.075C43.379 24.8917 43.3497 24.734 43.291 24.602C43.2323 24.47 43.1517 24.3637 43.049 24.283C42.9463 24.195 42.8253 24.1327 42.686 24.096C42.5467 24.052 42.3927 24.03 42.224 24.03H39.892L40.046 23.81V26.439C40.046 26.6003 40.002 26.736 39.914 26.846C39.826 26.9487 39.705 27 39.551 27ZM39.903 23.073H42.532C42.7007 23.0657 42.862 22.9997 43.016 22.875C43.1773 22.743 43.3057 22.567 43.401 22.347C43.5037 22.127 43.555 21.8777 43.555 21.599C43.555 21.247 43.4487 20.9537 43.236 20.719C43.0307 20.477 42.785 20.356 42.499 20.356H39.925L40.046 20.07V23.304L39.903 23.073ZM48.8986 27.11C48.2899 27.11 47.7619 26.9853 47.3146 26.736C46.8673 26.4793 46.5189 26.131 46.2696 25.691C46.0276 25.2437 45.9066 24.734 45.9066 24.162C45.9066 23.5167 46.0349 22.9667 46.2916 22.512C46.5556 22.05 46.8966 21.698 47.3146 21.456C47.7326 21.2067 48.1763 21.082 48.6456 21.082C49.0049 21.082 49.3459 21.1553 49.6686 21.302C49.9913 21.4413 50.2773 21.6393 50.5266 21.896C50.7833 22.1453 50.9849 22.4423 51.1316 22.787C51.2783 23.1243 51.3553 23.4947 51.3626 23.898C51.3553 24.0447 51.2966 24.1657 51.1866 24.261C51.0766 24.3563 50.9483 24.404 50.8016 24.404H46.5226L46.2586 23.469H50.3946L50.1856 23.667V23.392C50.1709 23.1353 50.0866 22.9117 49.9326 22.721C49.7786 22.523 49.5879 22.3727 49.3606 22.27C49.1333 22.16 48.8949 22.105 48.6456 22.105C48.4256 22.105 48.2129 22.1417 48.0076 22.215C47.8096 22.281 47.6299 22.391 47.4686 22.545C47.3146 22.699 47.1899 22.9043 47.0946 23.161C47.0066 23.4103 46.9626 23.722 46.9626 24.096C46.9626 24.4993 47.0469 24.8513 47.2156 25.152C47.3843 25.4527 47.6116 25.6873 47.8976 25.856C48.1836 26.0173 48.4989 26.098 48.8436 26.098C49.1149 26.098 49.3386 26.0723 49.5146 26.021C49.6906 25.9623 49.8373 25.8927 49.9546 25.812C50.0719 25.7313 50.1746 25.6543 50.2626 25.581C50.3726 25.515 50.4826 25.482 50.5926 25.482C50.7246 25.482 50.8346 25.5297 50.9226 25.625C51.0106 25.713 51.0546 25.8193 51.0546 25.944C51.0546 26.1053 50.9739 26.252 50.8126 26.384C50.6146 26.5747 50.3396 26.7433 49.9876 26.89C49.6429 27.0367 49.2799 27.11 48.8986 27.11ZM57.3899 21.126C57.5512 21.126 57.6832 21.181 57.7859 21.291C57.8886 21.3937 57.9399 21.5257 57.9399 21.687V26.439C57.9399 26.6003 57.8886 26.736 57.7859 26.846C57.6832 26.9487 57.5512 27 57.3899 27C57.2359 27 57.1039 26.9487 56.9939 26.846C56.8912 26.736 56.8399 26.6003 56.8399 26.439V25.647L57.0709 25.68C57.0709 25.812 57.0159 25.9587 56.9059 26.12C56.8032 26.2813 56.6602 26.439 56.4769 26.593C56.2936 26.7397 56.0772 26.8643 55.8279 26.967C55.5786 27.0623 55.3109 27.11 55.0249 27.11C54.5189 27.11 54.0642 26.9817 53.6609 26.725C53.2576 26.461 52.9386 26.1017 52.7039 25.647C52.4692 25.1923 52.3519 24.6753 52.3519 24.096C52.3519 23.502 52.4692 22.9813 52.7039 22.534C52.9386 22.0793 53.2539 21.7237 53.6499 21.467C54.0532 21.2103 54.5006 21.082 54.9919 21.082C55.3072 21.082 55.5969 21.1333 55.8609 21.236C56.1322 21.3387 56.3669 21.4707 56.5649 21.632C56.7629 21.7933 56.9132 21.9657 57.0159 22.149C57.1259 22.325 57.1809 22.4937 57.1809 22.655L56.8399 22.688V21.687C56.8399 21.533 56.8912 21.401 56.9939 21.291C57.1039 21.181 57.2359 21.126 57.3899 21.126ZM55.1459 26.098C55.4906 26.098 55.7949 26.01 56.0589 25.834C56.3229 25.658 56.5282 25.4197 56.6749 25.119C56.8216 24.811 56.8949 24.47 56.8949 24.096C56.8949 23.7147 56.8216 23.3737 56.6749 23.073C56.5282 22.7723 56.3229 22.534 56.0589 22.358C55.7949 22.182 55.4906 22.094 55.1459 22.094C54.8086 22.094 54.5079 22.182 54.2439 22.358C53.9872 22.534 53.7819 22.7723 53.6279 23.073C53.4812 23.3737 53.4079 23.7147 53.4079 24.096C53.4079 24.47 53.4812 24.811 53.6279 25.119C53.7819 25.4197 53.9872 25.658 54.2439 25.834C54.5079 26.01 54.8086 26.098 55.1459 26.098ZM59.1399 26.098C59.0739 25.9953 59.0446 25.878 59.0519 25.746C59.0593 25.6067 59.1363 25.4893 59.2829 25.394C59.3856 25.328 59.4919 25.3023 59.6019 25.317C59.7193 25.3243 59.8293 25.3793 59.9319 25.482C60.1373 25.7093 60.3646 25.889 60.6139 26.021C60.8706 26.153 61.1786 26.219 61.5379 26.219C61.6846 26.2117 61.8349 26.1897 61.9889 26.153C62.1429 26.109 62.2749 26.0357 62.3849 25.933C62.4949 25.823 62.5499 25.6653 62.5499 25.46C62.5499 25.2767 62.4913 25.13 62.3739 25.02C62.2566 24.91 62.1026 24.822 61.9119 24.756C61.7213 24.6827 61.5159 24.6167 61.2959 24.558C61.0613 24.492 60.8229 24.4187 60.5809 24.338C60.3463 24.2573 60.1336 24.1547 59.9429 24.03C59.7523 23.898 59.5946 23.7293 59.4699 23.524C59.3526 23.3187 59.2939 23.0657 59.2939 22.765C59.2939 22.4203 59.3893 22.1233 59.5799 21.874C59.7779 21.6247 60.0309 21.4303 60.3389 21.291C60.6543 21.1517 60.9953 21.082 61.3619 21.082C61.5746 21.082 61.7983 21.1113 62.0329 21.17C62.2676 21.2213 62.4949 21.3057 62.7149 21.423C62.9349 21.5403 63.1256 21.6943 63.2869 21.885C63.3603 21.9803 63.4006 22.094 63.4079 22.226C63.4226 22.358 63.3639 22.4753 63.2319 22.578C63.1439 22.6513 63.0376 22.6843 62.9129 22.677C62.7883 22.6697 62.6856 22.6293 62.6049 22.556C62.4656 22.38 62.2859 22.2443 62.0659 22.149C61.8459 22.0463 61.5966 21.995 61.3179 21.995C61.1786 21.995 61.0319 22.017 60.8779 22.061C60.7313 22.0977 60.6066 22.1673 60.5039 22.27C60.4013 22.3727 60.3499 22.523 60.3499 22.721C60.3499 22.9043 60.4086 23.051 60.5259 23.161C60.6506 23.271 60.8119 23.3627 61.0099 23.436C61.2079 23.5093 61.4243 23.5753 61.6589 23.634C61.8863 23.6927 62.1099 23.7623 62.3299 23.843C62.5573 23.9237 62.7589 24.03 62.9349 24.162C63.1183 24.2867 63.2649 24.4517 63.3749 24.657C63.4923 24.855 63.5509 25.108 63.5509 25.416C63.5509 25.7753 63.4446 26.0833 63.2319 26.34C63.0266 26.5893 62.7626 26.78 62.4399 26.912C62.1246 27.044 61.7909 27.11 61.4389 27.11C61.0209 27.11 60.6029 27.0367 60.1849 26.89C59.7743 26.736 59.4259 26.472 59.1399 26.098ZM70.2779 24.107C70.2779 24.6937 70.1495 25.2143 69.8929 25.669C69.6362 26.1163 69.2879 26.4683 68.8479 26.725C68.4079 26.9817 67.9129 27.11 67.3629 27.11C66.8129 27.11 66.3179 26.9817 65.8779 26.725C65.4379 26.4683 65.0859 26.1163 64.8219 25.669C64.5652 25.2143 64.4369 24.6937 64.4369 24.107C64.4369 23.513 64.5652 22.9923 64.8219 22.545C65.0859 22.0903 65.4379 21.7347 65.8779 21.478C66.3179 21.214 66.8129 21.082 67.3629 21.082C67.9129 21.082 68.4079 21.214 68.8479 21.478C69.2879 21.7347 69.6362 22.0903 69.8929 22.545C70.1495 22.9923 70.2779 23.513 70.2779 24.107ZM69.1779 24.107C69.1779 23.7037 69.0972 23.3553 68.9359 23.062C68.7745 22.7613 68.5545 22.5267 68.2759 22.358C68.0045 22.182 67.7002 22.094 67.3629 22.094C67.0255 22.094 66.7175 22.182 66.4389 22.358C66.1602 22.5267 65.9402 22.7613 65.7789 23.062C65.6175 23.3553 65.5369 23.7037 65.5369 24.107C65.5369 24.4957 65.6175 24.8403 65.7789 25.141C65.9402 25.4417 66.1602 25.6763 66.4389 25.845C66.7175 26.0137 67.0255 26.098 67.3629 26.098C67.7002 26.098 68.0045 26.0137 68.2759 25.845C68.5545 25.6763 68.7745 25.4417 68.9359 25.141C69.0972 24.8403 69.1779 24.4957 69.1779 24.107ZM74.5039 21.082C75.0246 21.082 75.4279 21.192 75.7139 21.412C75.9999 21.6247 76.1979 21.9143 76.3079 22.281C76.4253 22.6403 76.4839 23.0437 76.4839 23.491V26.439C76.4839 26.6003 76.4289 26.736 76.3189 26.846C76.2163 26.9487 76.0879 27 75.9339 27C75.7726 27 75.6406 26.9487 75.5379 26.846C75.4353 26.736 75.3839 26.6003 75.3839 26.439V23.502C75.3839 23.238 75.3473 23.0033 75.2739 22.798C75.2006 22.5853 75.0723 22.4167 74.8889 22.292C74.7129 22.16 74.4636 22.094 74.1409 22.094C73.8403 22.094 73.5763 22.16 73.3489 22.292C73.1216 22.4167 72.9419 22.5853 72.8099 22.798C72.6853 23.0033 72.6229 23.238 72.6229 23.502V26.439C72.6229 26.6003 72.5679 26.736 72.4579 26.846C72.3553 26.9487 72.2269 27 72.0729 27C71.9116 27 71.7796 26.9487 71.6769 26.846C71.5743 26.736 71.5229 26.6003 71.5229 26.439V21.775C71.5229 21.6137 71.5743 21.4817 71.6769 21.379C71.7796 21.269 71.9116 21.214 72.0729 21.214C72.2269 21.214 72.3553 21.269 72.4579 21.379C72.5679 21.4817 72.6229 21.6137 72.6229 21.775V22.391L72.4249 22.501C72.4763 22.3397 72.5643 22.1783 72.6889 22.017C72.8209 21.8483 72.9786 21.6943 73.1619 21.555C73.3453 21.4083 73.5506 21.2947 73.7779 21.214C74.0053 21.126 74.2473 21.082 74.5039 21.082ZM77.6702 26.098C77.6042 25.9953 77.5749 25.878 77.5822 25.746C77.5895 25.6067 77.6665 25.4893 77.8132 25.394C77.9159 25.328 78.0222 25.3023 78.1322 25.317C78.2495 25.3243 78.3595 25.3793 78.4622 25.482C78.6675 25.7093 78.8949 25.889 79.1442 26.021C79.4009 26.153 79.7089 26.219 80.0682 26.219C80.2149 26.2117 80.3652 26.1897 80.5192 26.153C80.6732 26.109 80.8052 26.0357 80.9152 25.933C81.0252 25.823 81.0802 25.6653 81.0802 25.46C81.0802 25.2767 81.0215 25.13 80.9042 25.02C80.7869 24.91 80.6329 24.822 80.4422 24.756C80.2515 24.6827 80.0462 24.6167 79.8262 24.558C79.5915 24.492 79.3532 24.4187 79.1112 24.338C78.8765 24.2573 78.6639 24.1547 78.4732 24.03C78.2825 23.898 78.1249 23.7293 78.0002 23.524C77.8829 23.3187 77.8242 23.0657 77.8242 22.765C77.8242 22.4203 77.9195 22.1233 78.1102 21.874C78.3082 21.6247 78.5612 21.4303 78.8692 21.291C79.1845 21.1517 79.5255 21.082 79.8922 21.082C80.1049 21.082 80.3285 21.1113 80.5632 21.17C80.7979 21.2213 81.0252 21.3057 81.2452 21.423C81.4652 21.5403 81.6559 21.6943 81.8172 21.885C81.8905 21.9803 81.9309 22.094 81.9382 22.226C81.9529 22.358 81.8942 22.4753 81.7622 22.578C81.6742 22.6513 81.5679 22.6843 81.4432 22.677C81.3185 22.6697 81.2159 22.6293 81.1352 22.556C80.9959 22.38 80.8162 22.2443 80.5962 22.149C80.3762 22.0463 80.1269 21.995 79.8482 21.995C79.7089 21.995 79.5622 22.017 79.4082 22.061C79.2615 22.0977 79.1369 22.1673 79.0342 22.27C78.9315 22.3727 78.8802 22.523 78.8802 22.721C78.8802 22.9043 78.9389 23.051 79.0562 23.161C79.1809 23.271 79.3422 23.3627 79.5402 23.436C79.7382 23.5093 79.9545 23.5753 80.1892 23.634C80.4165 23.6927 80.6402 23.7623 80.8602 23.843C81.0875 23.9237 81.2892 24.03 81.4652 24.162C81.6485 24.2867 81.7952 24.4517 81.9052 24.657C82.0225 24.855 82.0812 25.108 82.0812 25.416C82.0812 25.7753 81.9749 26.0833 81.7622 26.34C81.5569 26.5893 81.2929 26.78 80.9702 26.912C80.6549 27.044 80.3212 27.11 79.9692 27.11C79.5512 27.11 79.1332 27.0367 78.7152 26.89C78.3045 26.736 77.9562 26.472 77.6702 26.098Z" fill="#1C73BE"/>
<path d="M61.5141 27.3C62.1888 27.3 62.6984 27.465 63.0431 27.795C63.3951 28.125 63.5711 28.6053 63.5711 29.236C63.5711 29.566 63.4904 29.8667 63.3291 30.138C63.1751 30.402 62.9441 30.611 62.6361 30.765C62.3354 30.919 61.9578 30.9997 61.5031 31.007L61.5251 30.6C61.7671 30.6 62.0274 30.633 62.3061 30.699C62.5921 30.765 62.8598 30.8787 63.1091 31.04C63.3584 31.2013 63.5638 31.4213 63.7251 31.7C63.8864 31.9713 63.9671 32.3123 63.9671 32.723C63.9671 33.1703 63.8938 33.5443 63.7471 33.845C63.6004 34.1383 63.4061 34.3693 63.1641 34.538C62.9221 34.7067 62.6544 34.8277 62.3611 34.901C62.0751 34.967 61.7928 35 61.5141 35H58.6981C58.5441 35 58.4121 34.9487 58.3021 34.846C58.1921 34.736 58.1371 34.6003 58.1371 34.439V27.861C58.1371 27.6997 58.1921 27.5677 58.3021 27.465C58.4121 27.355 58.5441 27.3 58.6981 27.3H61.5141ZM61.3601 28.378H59.1931L59.3251 28.202V30.567L59.2041 30.446H61.3821C61.6461 30.4387 61.8771 30.3507 62.0751 30.182C62.2804 30.006 62.3831 29.7493 62.3831 29.412C62.3831 29.0673 62.2914 28.8107 62.1081 28.642C61.9248 28.466 61.6754 28.378 61.3601 28.378ZM61.4371 31.524H59.2481L59.3251 31.447V34.043L59.2371 33.944H61.5031C61.8844 33.944 62.1924 33.845 62.4271 33.647C62.6618 33.4417 62.7791 33.1337 62.7791 32.723C62.7791 32.3783 62.7094 32.1217 62.5701 31.953C62.4308 31.7843 62.2584 31.6707 62.0531 31.612C61.8478 31.5533 61.6424 31.524 61.4371 31.524ZM69.5254 29.214C69.6794 29.214 69.8077 29.269 69.9104 29.379C70.0204 29.4817 70.0754 29.6137 70.0754 29.775V32.668C70.0754 33.4307 69.8627 34.0283 69.4374 34.461C69.012 34.8863 68.4107 35.099 67.6334 35.099C66.8634 35.099 66.2657 34.8863 65.8404 34.461C65.4224 34.0283 65.2134 33.4307 65.2134 32.668V29.775C65.2134 29.6137 65.2647 29.4817 65.3674 29.379C65.47 29.269 65.602 29.214 65.7634 29.214C65.9174 29.214 66.0457 29.269 66.1484 29.379C66.2584 29.4817 66.3134 29.6137 66.3134 29.775V32.668C66.3134 33.1447 66.4234 33.5003 66.6434 33.735C66.8707 33.9697 67.2007 34.087 67.6334 34.087C68.0734 34.087 68.407 33.9697 68.6344 33.735C68.8617 33.5003 68.9754 33.1447 68.9754 32.668V29.775C68.9754 29.6137 69.0267 29.4817 69.1294 29.379C69.232 29.269 69.364 29.214 69.5254 29.214ZM75.906 29.17C76.0673 29.17 76.1993 29.225 76.302 29.335C76.4046 29.4377 76.456 29.5697 76.456 29.731V34.461C76.456 35.1063 76.3313 35.6307 76.082 36.034C75.84 36.4373 75.51 36.7307 75.092 36.914C74.6813 37.1047 74.2156 37.2 73.695 37.2C73.431 37.2 73.167 37.1743 72.903 37.123C72.639 37.079 72.4226 37.013 72.254 36.925C72.078 36.8443 71.9533 36.7453 71.88 36.628C71.8066 36.5107 71.7956 36.3823 71.847 36.243C71.8983 36.067 71.9863 35.946 72.111 35.88C72.2356 35.8213 72.364 35.8177 72.496 35.869C72.6206 35.9203 72.7856 35.9863 72.991 36.067C73.1963 36.1477 73.431 36.188 73.695 36.188C74.0543 36.188 74.3586 36.1293 74.608 36.012C74.8573 35.8947 75.0443 35.7113 75.169 35.462C75.301 35.2127 75.367 34.89 75.367 34.494V33.735L75.543 33.999C75.4256 34.241 75.2716 34.4427 75.081 34.604C74.8903 34.7653 74.663 34.89 74.399 34.978C74.1423 35.066 73.8563 35.11 73.541 35.11C73.1376 35.11 72.7893 35.022 72.496 34.846C72.21 34.6627 71.99 34.4133 71.836 34.098C71.682 33.7753 71.605 33.4087 71.605 32.998V29.731C71.605 29.5697 71.6563 29.4377 71.759 29.335C71.8616 29.225 71.9936 29.17 72.155 29.17C72.309 29.17 72.4373 29.225 72.54 29.335C72.65 29.4377 72.705 29.5697 72.705 29.731V32.701C72.705 33.185 72.8113 33.5407 73.024 33.768C73.2366 33.988 73.552 34.098 73.97 34.098C74.2486 34.098 74.4906 34.0393 74.696 33.922C74.9013 33.8047 75.0626 33.6433 75.18 33.438C75.2973 33.2253 75.356 32.9797 75.356 32.701V29.731C75.356 29.5697 75.4073 29.4377 75.51 29.335C75.62 29.225 75.752 29.17 75.906 29.17Z" fill="#1C73BE"/>
<path d="M48.1895 32.1387L49.4484 30.7424C49.5198 30.6632 49.6065 30.6228 49.7083 30.6213C49.8098 30.6123 49.9002 30.6435 49.9794 30.7149C50.0547 30.7828 50.0931 30.8676 50.0945 30.9695C50.0996 31.0674 50.0664 31.156 49.995 31.2352L48.7362 32.6315C48.6647 32.7108 48.5783 32.7549 48.4768 32.7639C48.3749 32.7654 48.2863 32.7322 48.2111 32.6644C48.1318 32.593 48.0897 32.5083 48.0846 32.4104C48.0831 32.3085 48.1181 32.2179 48.1895 32.1387ZM47.9796 30.8184C48.0581 30.7313 48.1521 30.6868 48.2615 30.6849C48.367 30.6794 48.4633 30.716 48.5504 30.7946L51.3074 33.2801C51.3787 33.3444 51.4469 33.3843 51.5119 33.3998C51.5769 33.4153 51.6351 33.4104 51.6867 33.3851C51.7418 33.3558 51.789 33.3194 51.8283 33.2758C51.8676 33.2322 51.8936 33.1875 51.9063 33.1415C51.9226 33.0916 51.9522 33.0428 51.995 32.9953C52.0379 32.9478 52.099 32.9238 52.1783 32.9235C52.2575 32.9232 52.3348 32.9569 52.4101 33.0248C52.5051 33.1105 52.536 33.2316 52.5025 33.3882C52.4691 33.5447 52.3988 33.6824 52.2917 33.8013C52.231 33.8686 52.1536 33.9425 52.0596 34.0229C51.9656 34.1033 51.8555 34.1656 51.7294 34.2099C51.6069 34.2502 51.4691 34.2517 51.3161 34.2143C51.1592 34.1733 50.9856 34.0671 50.7955 33.8957L48.0147 31.3887C47.9276 31.3102 47.8813 31.2182 47.8758 31.1127C47.87 30.9997 47.9046 30.9016 47.9796 30.8184ZM54.4941 28.2162C54.811 28.5019 55.0297 28.8248 55.1503 29.1848C55.267 29.5413 55.2875 29.9009 55.2118 30.2636C55.1362 30.6262 54.9645 30.9561 54.6966 31.2532C54.4288 31.5503 54.1184 31.7552 53.7655 31.8678C53.4126 31.9805 53.051 31.9992 52.6808 31.924C52.3102 31.8412 51.9665 31.657 51.6496 31.3713C51.3288 31.082 51.11 30.7591 50.9934 30.4027C50.8763 30.0386 50.8556 29.6753 50.9313 29.3126C51.0029 28.9464 51.1727 28.6147 51.4405 28.3177C51.7084 28.0206 52.0207 27.8175 52.3776 27.7084C52.7305 27.5957 53.0923 27.5807 53.4629 27.6635C53.8295 27.7427 54.1732 27.927 54.4941 28.2162ZM53.9584 28.8104C53.7405 28.614 53.5131 28.4879 53.2761 28.4322C53.0351 28.3729 52.8012 28.3775 52.5744 28.4459C52.3472 28.5067 52.1515 28.6283 51.9872 28.8105C51.8229 28.9927 51.7205 29.2019 51.6798 29.4382C51.6352 29.6708 51.6548 29.9039 51.7387 30.1375C51.8186 30.3675 51.9674 30.5807 52.1853 30.7771C52.3952 30.9664 52.6207 31.0907 52.8617 31.1499C53.1026 31.2092 53.3365 31.2047 53.5634 31.1363C53.7902 31.0679 53.9857 30.9426 54.15 30.7604C54.3143 30.5782 54.4169 30.3727 54.4579 30.144C54.5025 29.9113 54.4829 29.6782 54.3991 29.4447C54.3152 29.2111 54.1683 28.9997 53.9584 28.8104Z" fill="#1C73BE"/>
</svg>
